<?xml version="1.0" encoding="UTF-8" standalone="no"?>
<!DOCTYPE svg PUBLIC "-//W3C//DTD SVG 1.1//EN"
 "http://www.w3.org/Graphics/SVG/1.1/DTD/svg11.dtd">
<!-- Generated by graphviz version 2.40.1 (20161225.0304)
 -->
<!-- Title: G Pages: 1 -->
<svg width="495pt" height="444pt"
 viewBox="0.00 0.00 495.25 444.00" xmlns="http://www.w3.org/2000/svg" xmlns:xlink="http://www.w3.org/1999/xlink">
<g id="graph0" class="graph" transform="scale(1 1) rotate(0) translate(4 440)">
<title>G</title>
<!-- A0 -->
<g id="node1" class="node">
<title>A0</title>
<ellipse fill="none" stroke="#000000" cx="240" cy="-425" rx="11" ry="11"/>
</g>
<!-- A1 -->
<g id="node2" class="node">
<title>A1</title>
<path fill="none" stroke="#000000" d="M262.0614,-366C262.0614,-366 217.9386,-366 217.9386,-366 211.9386,-366 205.9386,-360 205.9386,-354 205.9386,-354 205.9386,-342 205.9386,-342 205.9386,-336 211.9386,-330 217.9386,-330 217.9386,-330 262.0614,-330 262.0614,-330 268.0614,-330 274.0614,-336 274.0614,-342 274.0614,-342 274.0614,-354 274.0614,-354 274.0614,-360 268.0614,-366 262.0614,-366"/>
<text text-anchor="middle" x="240" y="-345" font-family="Helvetica,sans-Serif" font-size="10.00" fill="#000000">{Sin Wifi}</text>
</g>
<!-- A0&#45;&gt;A1 -->
<g id="edge1" class="edge">
<title>A0&#45;&gt;A1</title>
<path fill="none" stroke="#000000" d="M240,-413.9678C240,-404.124 240,-389.2813 240,-376.1664"/>
<polygon fill="#000000" stroke="#000000" points="240,-366.1474 244.5001,-376.1473 240,-371.1474 240.0001,-376.1474 240.0001,-376.1474 240.0001,-376.1474 240,-371.1474 235.5001,-376.1474 240,-366.1474 240,-366.1474"/>
<text text-anchor="middle" x="263.066" y="-387" font-family="Helvetica,sans-Serif" font-size="10.00" fill="#000000">encendido</text>
</g>
<!-- A2 -->
<g id="node3" class="node">
<title>A2</title>
<path fill="none" stroke="#000000" d="M193.2303,-282C193.2303,-282 136.7697,-282 136.7697,-282 130.7697,-282 124.7697,-276 124.7697,-270 124.7697,-270 124.7697,-258 124.7697,-258 124.7697,-252 130.7697,-246 136.7697,-246 136.7697,-246 193.2303,-246 193.2303,-246 199.2303,-246 205.2303,-252 205.2303,-258 205.2303,-258 205.2303,-270 205.2303,-270 205.2303,-276 199.2303,-282 193.2303,-282"/>
<text text-anchor="middle" x="165" y="-261" font-family="Helvetica,sans-Serif" font-size="10.00" fill="#000000">{Sin MQTT}</text>
</g>
<!-- A1&#45;&gt;A2 -->
<g id="edge2" class="edge">
<title>A1&#45;&gt;A2</title>
<path fill="none" stroke="#000000" d="M234.3388,-329.7983C230.7307,-320.2126 225.3397,-308.6797 218,-300 214.4088,-295.7532 210.1986,-291.792 205.7482,-288.1669"/>
<polygon fill="#000000" stroke="#000000" points="197.56,-282.0155 208.2581,-284.424 201.5576,-285.0187 205.5552,-288.0219 205.5552,-288.0219 205.5552,-288.0219 201.5576,-285.0187 202.8523,-291.6197 197.56,-282.0155 197.56,-282.0155"/>
<text text-anchor="middle" x="260.064" y="-303" font-family="Helvetica,sans-Serif" font-size="10.00" fill="#000000">wifi_conectado</text>
</g>
<!-- A5 -->
<g id="node6" class="node">
<title>A5</title>
<ellipse fill="none" stroke="#000000" cx="99" cy="-15" rx="11" ry="11"/>
<ellipse fill="none" stroke="#000000" cx="99" cy="-15" rx="15" ry="15"/>
</g>
<!-- A1&#45;&gt;A5 -->
<g id="edge10" class="edge">
<title>A1&#45;&gt;A5</title>
<path fill="none" stroke="#000000" d="M205.8687,-343.3348C139.609,-333.3172 0,-307.0966 0,-264 0,-264 0,-264 0,-96 0,-57.4617 45.4935,-33.9506 74.8017,-22.8028"/>
<polygon fill="#000000" stroke="#000000" points="84.3922,-19.3709 76.493,-26.9771 79.6845,-21.0555 74.9769,-22.7402 74.9769,-22.7402 74.9769,-22.7402 79.6845,-21.0555 73.4607,-18.5033 84.3922,-19.3709 84.3922,-19.3709"/>
<text text-anchor="middle" x="19.4565" y="-177" font-family="Helvetica,sans-Serif" font-size="10.00" fill="#000000">apagado</text>
</g>
<!-- A2&#45;&gt;A1 -->
<g id="edge7" class="edge">
<title>A2&#45;&gt;A1</title>
<path fill="none" stroke="#000000" d="M140.3328,-282.3494C131.2735,-291.3424 124.7566,-302.2986 131.754,-312 139.6129,-322.8958 169.543,-332.3537 195.9438,-338.8376"/>
<polygon fill="#000000" stroke="#000000" points="205.8359,-341.1739 195.0693,-343.2549 200.9698,-340.0246 196.1037,-338.8753 196.1037,-338.8753 196.1037,-338.8753 200.9698,-340.0246 197.138,-334.4958 205.8359,-341.1739 205.8359,-341.1739"/>
<text text-anchor="middle" x="173.123" y="-303" font-family="Helvetica,sans-Serif" font-size="10.00" fill="#000000">wifi_desconectado</text>
</g>
<!-- A3 -->
<g id="node4" class="node">
<title>A3</title>
<path fill="none" stroke="#000000" d="M219.1311,-198C219.1311,-198 168.8689,-198 168.8689,-198 162.8689,-198 156.8689,-192 156.8689,-186 156.8689,-186 156.8689,-174 156.8689,-174 156.8689,-168 162.8689,-162 168.8689,-162 168.8689,-162 219.1311,-162 219.1311,-162 225.1311,-162 231.1311,-168 231.1311,-174 231.1311,-174 231.1311,-186 231.1311,-186 231.1311,-192 225.1311,-198 219.1311,-198"/>
<text text-anchor="middle" x="194" y="-177" font-family="Helvetica,sans-Serif" font-size="10.00" fill="#000000">{Anunciar}</text>
</g>
<!-- A2&#45;&gt;A3 -->
<g id="edge3" class="edge">
<title>A2&#45;&gt;A3</title>
<path fill="none" stroke="#000000" d="M124.5136,-250.6191C106.3354,-242.3074 90.9529,-230.4536 100.862,-216 106.6324,-207.5831 126.7947,-199.2938 146.8906,-192.7949"/>
<polygon fill="#000000" stroke="#000000" points="156.6872,-189.7557 148.4696,-197.0167 151.9117,-191.2372 147.1363,-192.7188 147.1363,-192.7188 147.1363,-192.7188 151.9117,-191.2372 145.8029,-188.4209 156.6872,-189.7557 156.6872,-189.7557"/>
<text text-anchor="middle" x="136.569" y="-219" font-family="Helvetica,sans-Serif" font-size="10.00" fill="#000000">mqtt_conectado</text>
</g>
<!-- A2&#45;&gt;A5 -->
<g id="edge11" class="edge">
<title>A2&#45;&gt;A5</title>
<path fill="none" stroke="#000000" d="M124.6017,-252.6394C112.6637,-247.1945 100.9434,-239.3056 94,-228 57.4164,-168.433 77.5712,-80.7347 90.6304,-38.9015"/>
<polygon fill="#000000" stroke="#000000" points="93.7588,-29.2991 94.9397,-40.2013 92.2099,-34.0532 90.661,-38.8073 90.661,-38.8073 90.661,-38.8073 92.2099,-34.0532 86.3824,-37.4133 93.7588,-29.2991 93.7588,-29.2991"/>
<text text-anchor="middle" x="93.4565" y="-135" font-family="Helvetica,sans-Serif" font-size="10.00" fill="#000000">apagado</text>
</g>
<!-- A3&#45;&gt;A1 -->
<g id="edge8" class="edge">
<title>A3&#45;&gt;A1</title>
<path fill="none" stroke="#000000" d="M231.2227,-189.5113C246.0765,-195.0213 262.1834,-203.435 273,-216 298.3312,-245.4259 291.6146,-261.548 297,-300 297.7397,-305.2818 299.5744,-307.3292 297,-312 293.4654,-318.4129 288.2541,-323.8414 282.3968,-328.3837"/>
<polygon fill="#000000" stroke="#000000" points="274.1059,-334.0377 279.8324,-324.6857 278.2368,-331.2206 282.3677,-328.4035 282.3677,-328.4035 282.3677,-328.4035 278.2368,-331.2206 284.9031,-332.1214 274.1059,-334.0377 274.1059,-334.0377"/>
<text text-anchor="middle" x="336.123" y="-261" font-family="Helvetica,sans-Serif" font-size="10.00" fill="#000000">wifi_desconectado</text>
</g>
<!-- A3&#45;&gt;A2 -->
<g id="edge5" class="edge">
<title>A3&#45;&gt;A2</title>
<path fill="none" stroke="#000000" d="M187.7197,-198.1912C183.8839,-209.3017 178.9022,-223.7315 174.5815,-236.2467"/>
<polygon fill="#000000" stroke="#000000" points="171.2926,-245.7733 170.3024,-234.8522 172.9243,-241.047 174.556,-236.3207 174.556,-236.3207 174.556,-236.3207 172.9243,-241.047 178.8097,-237.7893 171.2926,-245.7733 171.2926,-245.7733"/>
<text text-anchor="middle" x="225.628" y="-219" font-family="Helvetica,sans-Serif" font-size="10.00" fill="#000000">mqtt_desconectado</text>
</g>
<!-- A4 -->
<g id="node5" class="node">
<title>A4</title>
<path fill="none" stroke="#000000" d="M269.53,-114C269.53,-114 210.47,-114 210.47,-114 204.47,-114 198.47,-108 198.47,-102 198.47,-102 198.47,-90 198.47,-90 198.47,-84 204.47,-78 210.47,-78 210.47,-78 269.53,-78 269.53,-78 275.53,-78 281.53,-84 281.53,-90 281.53,-90 281.53,-102 281.53,-102 281.53,-108 275.53,-114 269.53,-114"/>
<text text-anchor="middle" x="240" y="-93" font-family="Helvetica,sans-Serif" font-size="10.00" fill="#000000">{Conectado}</text>
</g>
<!-- A3&#45;&gt;A4 -->
<g id="edge4" class="edge">
<title>A3&#45;&gt;A4</title>
<path fill="none" stroke="#000000" d="M203.9813,-161.7733C210.1901,-150.4355 218.2861,-135.6515 225.2295,-122.9723"/>
<polygon fill="#000000" stroke="#000000" points="230.0382,-114.1912 229.1819,-125.1236 227.6366,-118.5767 225.235,-122.9622 225.235,-122.9622 225.235,-122.9622 227.6366,-118.5767 221.288,-120.8007 230.0382,-114.1912 230.0382,-114.1912"/>
<text text-anchor="middle" x="249.725" y="-135" font-family="Helvetica,sans-Serif" font-size="10.00" fill="#000000">mqtt_suscrito</text>
</g>
<!-- A3&#45;&gt;A5 -->
<g id="edge12" class="edge">
<title>A3&#45;&gt;A5</title>
<path fill="none" stroke="#000000" d="M181.1398,-161.8567C172.0738,-148.7894 159.8565,-130.6076 150.087,-114 135.0861,-88.4993 119.7718,-58.126 109.8747,-37.8082"/>
<polygon fill="#000000" stroke="#000000" points="105.4764,-28.7071 113.8794,-35.7527 107.6521,-33.209 109.8277,-37.7108 109.8277,-37.7108 109.8277,-37.7108 107.6521,-33.209 105.7761,-39.6689 105.4764,-28.7071 105.4764,-28.7071"/>
<text text-anchor="middle" x="170.4565" y="-93" font-family="Helvetica,sans-Serif" font-size="10.00" fill="#000000">apagado</text>
</g>
<!-- A4&#45;&gt;A1 -->
<g id="edge9" class="edge">
<title>A4&#45;&gt;A1</title>
<path fill="none" stroke="#000000" d="M281.7626,-102.4764C316.0118,-110.2278 362.3983,-126.8795 385,-162 413.8783,-206.8737 410.7021,-237.6673 381,-282 359.118,-314.6606 316.5834,-331.5137 283.9289,-339.9785"/>
<polygon fill="#000000" stroke="#000000" points="274.1458,-342.3444 282.8078,-335.6198 279.0057,-341.1691 283.8656,-339.9937 283.8656,-339.9937 283.8656,-339.9937 279.0057,-341.1691 284.9234,-344.3676 274.1458,-342.3444 274.1458,-342.3444"/>
<text text-anchor="middle" x="446.123" y="-219" font-family="Helvetica,sans-Serif" font-size="10.00" fill="#000000">wifi_desconectado</text>
</g>
<!-- A4&#45;&gt;A2 -->
<g id="edge6" class="edge">
<title>A4&#45;&gt;A2</title>
<path fill="none" stroke="#000000" d="M268.139,-114.1398C273.7481,-119.194 278.8699,-125.1944 282,-132 299.9067,-170.9332 299.8758,-194.6213 273,-228 265.2924,-237.5726 239.5851,-246.3405 215.1858,-252.8265"/>
<polygon fill="#000000" stroke="#000000" points="205.2257,-255.3735 213.7991,-248.5362 210.0699,-254.1347 214.914,-252.8959 214.914,-252.8959 214.914,-252.8959 210.0699,-254.1347 216.0289,-257.2556 205.2257,-255.3735 205.2257,-255.3735"/>
<text text-anchor="middle" x="337.628" y="-177" font-family="Helvetica,sans-Serif" font-size="10.00" fill="#000000">mqtt_desconectado</text>
</g>
<!-- A4&#45;&gt;A5 -->
<g id="edge13" class="edge">
<title>A4&#45;&gt;A5</title>
<path fill="none" stroke="#000000" d="M208.3568,-77.822C181.8101,-62.5718 144.5738,-41.1807 121.1255,-27.7104"/>
<polygon fill="#000000" stroke="#000000" points="112.2828,-22.6305 123.1954,-23.7098 116.6183,-25.1212 120.9539,-27.6118 120.9539,-27.6118 120.9539,-27.6118 116.6183,-25.1212 118.7123,-31.5138 112.2828,-22.6305 112.2828,-22.6305"/>
<text text-anchor="middle" x="193.4565" y="-51" font-family="Helvetica,sans-Serif" font-size="10.00" fill="#000000">apagado</text>
</g>
</g>
</svg>
